#include "hUGEDriver.h"
#include <stddef.h>

static const unsigned char order_cnt = 8;

static const unsigned char P0[] = {
    DN(C_4,1,0x000),
    DN(C_4,1,0x000),
    DN(C_5,1,0x000),
    DN(C_4,1,0x000),
    DN(C_4,1,0x000),
    DN(___,0,0x000),
    DN(C_5,1,0x000),
    DN(C_6,1,0x000),
    DN(___,0,0x000),
    DN(C_5,2,0x000),
    DN(C_6,2,0x000),
    DN(___,0,0x000),
    DN(C_5,3,0x000),
    DN(C_6,3,0x000),
    DN(___,0,0x000),
    DN(C_5,3,0x000),
    DN(G_4,1,0x000),
    DN(G_4,1,0x000),
    DN(G_5,1,0x000),
    DN(G_4,1,0x000),
    DN(G_4,1,0x000),
    DN(___,0,0x000),
    DN(G_5,1,0x000),
    DN(G_6,1,0x000),
    DN(___,0,0x000),
    DN(G_5,2,0x000),
    DN(G_6,2,0x000),
    DN(___,0,0x000),
    DN(G_5,3,0x000),
    DN(G_6,3,0x000),
    DN(___,0,0x000),
    DN(G_5,3,0x000),
    DN(F_4,1,0x000),
    DN(F_4,1,0x000),
    DN(F_5,1,0x000),
    DN(F_4,1,0x000),
    DN(F_4,1,0x000),
    DN(___,0,0x000),
    DN(F_5,1,0x000),
    DN(F_6,1,0x000),
    DN(___,0,0x000),
    DN(F_5,2,0x000),
    DN(F_6,2,0x000),
    DN(___,0,0x000),
    DN(F_5,3,0x000),
    DN(F_6,3,0x000),
    DN(___,0,0x000),
    DN(F_5,3,0x000),
    DN(Ds4,1,0x000),
    DN(Ds4,1,0x000),
    DN(Ds5,1,0x000),
    DN(Ds4,1,0x000),
    DN(Ds4,1,0x000),
    DN(___,0,0x000),
    DN(Ds5,1,0x000),
    DN(Ds6,1,0x000),
    DN(___,0,0x000),
    DN(Ds6,2,0x000),
    DN(D_6,2,0x000),
    DN(___,0,0x000),
    DN(D_6,3,0x000),
    DN(___,0,0x000),
    DN(___,0,0x000),
    DN(D_6,3,0x000),
};
static const unsigned char P2[] = {
    DN(C_5,2,0x299),
    DN(C_4,6,0x000),
    DN(___,0,0x000),
    DN(___,0,0x000),
    DN(___,0,0x000),
    DN(___,0,0x000),
    DN(___,0,0x000),
    DN(C_5,2,0x299),
    DN(C_4,6,0x000),
    DN(C_5,2,0x299),
    DN(C_5,2,0x299),
    DN(C_4,6,0x000),
    DN(___,0,0x000),
    DN(___,0,0x000),
    DN(___,0,0x000),
    DN(___,0,0x000),
    DN(G_5,2,0x299),
    DN(G_4,6,0x000),
    DN(G_5,2,0x299),
    DN(G_4,6,0x000),
    DN(___,0,0x000),
    DN(___,0,0x000),
    DN(G_5,2,0x299),
    DN(G_4,6,0x000),
    DN(___,0,0x000),
    DN(___,0,0x000),
    DN(G_5,2,0x299),
    DN(G_4,6,0x000),
    DN(___,0,0x000),
    DN(___,0,0x000),
    DN(___,0,0x000),
    DN(___,0,0x000),
    DN(F_5,2,0x299),
    DN(F_4,6,0x000),
    DN(___,0,0x000),
    DN(___,0,0x000),
    DN(___,0,0x000),
    DN(___,0,0x000),
    DN(___,0,0x000),
    DN(F_5,2,0x299),
    DN(F_4,6,0x000),
    DN(F_5,2,0x299),
    DN(F_5,2,0x299),
    DN(F_4,6,0x000),
    DN(___,0,0x000),
    DN(___,0,0x000),
    DN(___,0,0x000),
    DN(___,0,0x000),
    DN(Ds5,2,0x299),
    DN(Ds4,6,0x000),
    DN(Ds5,2,0x299),
    DN(Ds4,6,0x000),
    DN(___,0,0x000),
    DN(___,0,0x000),
    DN(Ds5,2,0x299),
    DN(Ds4,6,0x000),
    DN(___,0,0x000),
    DN(___,0,0x000),
    DN(D_5,2,0x299),
    DN(D_4,6,0x000),
    DN(___,0,0x000),
    DN(___,0,0x000),
    DN(___,0,0x000),
    DN(___,0,0x000),
};
static const unsigned char P4[] = {
    DN(C_4,1,0xC0F),
    DN(C_4,1,0x000),
    DN(C_5,1,0x000),
    DN(C_4,1,0x000),
    DN(C_4,1,0x000),
    DN(___,0,0xE00),
    DN(C_4,1,0x000),
    DN(C_5,1,0x000),
    DN(___,0,0xE00),
    DN(C_4,1,0xC09),
    DN(C_5,1,0xC09),
    DN(___,0,0xE00),
    DN(C_4,1,0xC01),
    DN(C_5,1,0xC01),
    DN(___,0,0xE00),
    DN(___,0,0x000),
    DN(G_4,1,0xC0F),
    DN(G_4,1,0x000),
    DN(G_5,1,0x000),
    DN(G_4,1,0x000),
    DN(G_4,1,0x000),
    DN(___,0,0xE00),
    DN(G_4,1,0x000),
    DN(G_5,1,0x000),
    DN(___,0,0xE00),
    DN(G_4,1,0xC09),
    DN(G_5,1,0xC09),
    DN(___,0,0xE00),
    DN(G_4,1,0xC01),
    DN(G_5,1,0xC01),
    DN(___,0,0xE00),
    DN(___,0,0x000),
    DN(F_4,1,0xC0F),
    DN(F_4,1,0x000),
    DN(F_5,1,0x000),
    DN(F_4,1,0x000),
    DN(F_4,1,0x000),
    DN(___,0,0xE00),
    DN(F_4,1,0x000),
    DN(F_5,1,0x000),
    DN(___,0,0xE00),
    DN(F_4,1,0xC09),
    DN(F_5,1,0xC09),
    DN(___,0,0xE00),
    DN(F_4,1,0xC01),
    DN(F_5,1,0xC01),
    DN(___,0,0xE00),
    DN(___,0,0x000),
    DN(Ds4,1,0xC0F),
    DN(Ds4,1,0x000),
    DN(Ds5,1,0x000),
    DN(Ds4,1,0x000),
    DN(Ds4,1,0x000),
    DN(___,0,0xE00),
    DN(Ds5,1,0x000),
    DN(Ds6,1,0x000),
    DN(___,0,0xE00),
    DN(___,0,0xC09),
    DN(D_6,1,0x000),
    DN(___,0,0x000),
    DN(___,0,0xC04),
    DN(___,0,0x000),
    DN(___,0,0x000),
    DN(___,0,0x000),
};
static const unsigned char P6[] = {
    DN(Cs8,1,0x000),
    DN(Cs8,1,0x000),
    DN(Cs8,1,0x000),
    DN(Cs8,1,0x000),
    DN(Cs8,2,0x000),
    DN(___,0,0x000),
    DN(Cs8,1,0x000),
    DN(Cs8,1,0x000),
    DN(___,0,0x000),
    DN(Cs8,1,0x000),
    DN(Cs8,1,0x000),
    DN(___,0,0x000),
    DN(Cs8,2,0x000),
    DN(___,0,0x000),
    DN(Cs8,1,0x000),
    DN(___,0,0x000),
    DN(Cs8,1,0x000),
    DN(Cs8,1,0x000),
    DN(Cs8,1,0x000),
    DN(Cs8,1,0x000),
    DN(Cs8,2,0x000),
    DN(Cs8,1,0x000),
    DN(Cs8,1,0x000),
    DN(Cs8,2,0x000),
    DN(___,0,0x000),
    DN(Cs8,1,0x000),
    DN(Cs8,1,0x000),
    DN(___,0,0x000),
    DN(Cs8,2,0x000),
    DN(Cs8,2,0x000),
    DN(Cs8,2,0x000),
    DN(Cs8,2,0x000),
    DN(Cs8,1,0x000),
    DN(Cs8,1,0x000),
    DN(Cs8,1,0x000),
    DN(Cs8,1,0x000),
    DN(Cs8,2,0x000),
    DN(___,0,0x000),
    DN(Cs8,1,0x000),
    DN(Cs8,1,0x000),
    DN(___,0,0x000),
    DN(Cs8,1,0x000),
    DN(Cs8,1,0x000),
    DN(___,0,0x000),
    DN(Cs8,2,0x000),
    DN(___,0,0x000),
    DN(Cs8,1,0x000),
    DN(___,0,0x000),
    DN(Cs8,1,0x000),
    DN(Cs8,1,0x000),
    DN(Cs8,1,0x000),
    DN(Cs8,1,0x000),
    DN(Cs8,2,0x000),
    DN(Cs8,1,0x000),
    DN(Cs8,1,0x000),
    DN(Cs8,2,0x000),
    DN(___,0,0x000),
    DN(Cs8,1,0x000),
    DN(Cs8,1,0x000),
    DN(___,0,0x000),
    DN(Cs8,2,0x000),
    DN(Cs8,2,0x000),
    DN(Cs8,2,0x000),
    DN(Cs8,2,0x000),
};
static const unsigned char P1[] = {
    DN(C_4,1,0x000),
    DN(C_4,1,0x000),
    DN(C_5,1,0x000),
    DN(C_4,1,0x000),
    DN(C_4,1,0x000),
    DN(___,0,0x000),
    DN(C_5,1,0x000),
    DN(C_6,1,0x000),
    DN(___,0,0x000),
    DN(C_5,2,0x000),
    DN(C_6,2,0x000),
    DN(___,0,0x000),
    DN(C_5,3,0x000),
    DN(C_6,3,0x000),
    DN(___,0,0x000),
    DN(C_5,3,0x000),
    DN(G_4,1,0x000),
    DN(G_4,1,0x000),
    DN(G_5,1,0x000),
    DN(G_4,1,0x000),
    DN(G_4,1,0x000),
    DN(___,0,0x000),
    DN(G_5,1,0x000),
    DN(G_6,1,0x000),
    DN(___,0,0x000),
    DN(G_5,2,0x000),
    DN(G_6,2,0x000),
    DN(___,0,0x000),
    DN(G_5,3,0x000),
    DN(G_6,3,0x000),
    DN(___,0,0x000),
    DN(G_5,3,0x000),
    DN(Ds4,1,0x000),
    DN(Ds4,1,0x000),
    DN(Ds5,1,0x000),
    DN(Ds4,1,0x000),
    DN(Ds4,1,0x000),
    DN(___,0,0x000),
    DN(Ds5,1,0x000),
    DN(Ds6,1,0x000),
    DN(___,0,0x000),
    DN(Ds5,2,0x000),
    DN(Ds6,2,0x000),
    DN(___,0,0x000),
    DN(Ds5,3,0x000),
    DN(Ds6,3,0x000),
    DN(___,0,0x000),
    DN(Ds5,3,0x000),
    DN(D_4,4,0x464),
    DN(___,0,0x464),
    DN(___,0,0x464),
    DN(___,0,0x464),
    DN(___,0,0x464),
    DN(___,0,0x464),
    DN(___,0,0x464),
    DN(___,0,0x464),
    DN(D_4,5,0x464),
    DN(___,0,0x464),
    DN(___,0,0x464),
    DN(___,0,0x464),
    DN(___,0,0x464),
    DN(___,0,0x464),
    DN(___,0,0x464),
    DN(___,0,0x000),
};
static const unsigned char P3[] = {
    DN(C_5,2,0x299),
    DN(C_4,6,0x000),
    DN(___,0,0x000),
    DN(___,0,0x000),
    DN(___,0,0x000),
    DN(___,0,0x000),
    DN(___,0,0x000),
    DN(C_5,2,0x299),
    DN(C_4,6,0x000),
    DN(C_5,2,0x299),
    DN(C_5,2,0x299),
    DN(C_4,6,0x000),
    DN(___,0,0x000),
    DN(___,0,0x000),
    DN(___,0,0x000),
    DN(___,0,0x000),
    DN(G_5,2,0x299),
    DN(G_4,6,0x000),
    DN(G_5,2,0x299),
    DN(G_4,6,0x000),
    DN(___,0,0x000),
    DN(___,0,0x000),
    DN(G_5,2,0x299),
    DN(G_4,6,0x000),
    DN(___,0,0x000),
    DN(___,0,0x000),
    DN(G_5,2,0x299),
    DN(G_4,6,0x000),
    DN(___,0,0x000),
    DN(___,0,0x000),
    DN(___,0,0x000),
    DN(___,0,0x000),
    DN(Ds5,2,0x299),
    DN(Ds4,6,0x000),
    DN(___,0,0x000),
    DN(___,0,0x000),
    DN(___,0,0x000),
    DN(___,0,0x000),
    DN(___,0,0x000),
    DN(Ds5,2,0x299),
    DN(Ds4,6,0x000),
    DN(Ds5,2,0x299),
    DN(Ds5,2,0x299),
    DN(Ds4,6,0x000),
    DN(___,0,0x000),
    DN(___,0,0x000),
    DN(___,0,0x000),
    DN(___,0,0x000),
    DN(D_4,6,0x000),
    DN(___,0,0x000),
    DN(___,0,0x000),
    DN(___,0,0x000),
    DN(___,0,0x000),
    DN(___,0,0x000),
    DN(___,0,0x000),
    DN(___,0,0x000),
    DN(___,0,0x000),
    DN(___,0,0x000),
    DN(___,0,0x000),
    DN(___,0,0x000),
    DN(___,0,0x000),
    DN(___,0,0x000),
    DN(___,0,0x000),
    DN(___,0,0x000),
};
static const unsigned char P5[] = {
    DN(C_4,1,0xC0F),
    DN(C_4,1,0x000),
    DN(C_5,1,0x000),
    DN(C_4,1,0x000),
    DN(C_4,1,0x000),
    DN(___,0,0xE00),
    DN(C_4,1,0x000),
    DN(C_5,1,0x000),
    DN(___,0,0xE00),
    DN(C_4,1,0xC09),
    DN(C_5,1,0xC09),
    DN(___,0,0xE00),
    DN(C_4,1,0xC01),
    DN(C_5,1,0xC01),
    DN(___,0,0xE00),
    DN(___,0,0x000),
    DN(G_4,1,0xC0F),
    DN(G_4,1,0x000),
    DN(G_5,1,0x000),
    DN(G_4,1,0x000),
    DN(G_4,1,0x000),
    DN(___,0,0xE00),
    DN(G_4,1,0x000),
    DN(G_5,1,0x000),
    DN(___,0,0xE00),
    DN(G_4,1,0xC09),
    DN(G_5,1,0xC09),
    DN(___,0,0xE00),
    DN(G_4,1,0xC01),
    DN(G_5,1,0xC01),
    DN(___,0,0xE00),
    DN(___,0,0x000),
    DN(Ds4,1,0xC0F),
    DN(Ds4,1,0x000),
    DN(Ds5,1,0x000),
    DN(Ds4,1,0x000),
    DN(Ds4,1,0x000),
    DN(___,0,0xE00),
    DN(Ds4,1,0x000),
    DN(Ds5,1,0x000),
    DN(___,0,0xE00),
    DN(Ds4,1,0xC09),
    DN(Ds5,1,0xC09),
    DN(___,0,0xE00),
    DN(Ds4,1,0xC01),
    DN(Ds5,1,0xC01),
    DN(___,0,0xE00),
    DN(___,0,0x000),
    DN(D_5,1,0x464),
    DN(___,0,0x464),
    DN(___,0,0x464),
    DN(___,0,0x464),
    DN(___,0,0x464),
    DN(___,0,0x464),
    DN(___,0,0x464),
    DN(___,0,0x464),
    DN(___,0,0x464),
    DN(___,0,0x464),
    DN(___,0,0x464),
    DN(___,0,0x464),
    DN(___,0,0x464),
    DN(___,0,0x464),
    DN(___,0,0x464),
    DN(___,0,0x000),
};
static const unsigned char P7[] = {
    DN(Cs8,1,0x000),
    DN(Cs8,1,0x000),
    DN(Cs8,1,0x000),
    DN(Cs8,1,0x000),
    DN(Cs8,2,0x000),
    DN(___,0,0x000),
    DN(Cs8,1,0x000),
    DN(Cs8,1,0x000),
    DN(___,0,0x000),
    DN(Cs8,1,0x000),
    DN(Cs8,1,0x000),
    DN(___,0,0x000),
    DN(Cs8,2,0x000),
    DN(___,0,0x000),
    DN(Cs8,1,0x000),
    DN(___,0,0x000),
    DN(Cs8,1,0x000),
    DN(Cs8,1,0x000),
    DN(Cs8,1,0x000),
    DN(Cs8,1,0x000),
    DN(Cs8,2,0x000),
    DN(Cs8,1,0x000),
    DN(Cs8,1,0x000),
    DN(Cs8,2,0x000),
    DN(___,0,0x000),
    DN(Cs8,1,0x000),
    DN(Cs8,1,0x000),
    DN(___,0,0x000),
    DN(Cs8,2,0x000),
    DN(Cs8,2,0x000),
    DN(Cs8,2,0x000),
    DN(Cs8,2,0x000),
    DN(Cs8,1,0x000),
    DN(Cs8,1,0x000),
    DN(Cs8,1,0x000),
    DN(Cs8,1,0x000),
    DN(Cs8,2,0x000),
    DN(___,0,0x000),
    DN(Cs8,1,0x000),
    DN(Cs8,1,0x000),
    DN(___,0,0x000),
    DN(Cs8,1,0x000),
    DN(Cs8,1,0x000),
    DN(___,0,0x000),
    DN(Cs8,2,0x000),
    DN(___,0,0x000),
    DN(Cs8,1,0x000),
    DN(___,0,0x000),
    DN(Cs8,1,0x000),
    DN(___,0,0x000),
    DN(Cs8,2,0x000),
    DN(___,0,0x000),
    DN(___,0,0x000),
    DN(___,0,0x000),
    DN(Cs8,2,0x000),
    DN(___,0,0x000),
    DN(___,0,0x000),
    DN(___,0,0x000),
    DN(Cs8,1,0x000),
    DN(___,0,0x000),
    DN(Cs8,1,0x000),
    DN(___,0,0x000),
    DN(Cs8,1,0x000),
    DN(___,0,0x000),
};

static const unsigned char itSquareSP6[] = {
    DN(___,0,0x900),
    DN(___,0,0x900),
    DN(___,0,0x940),
    DN(___,0,0x940),
    DN(___,0,0x900),
    DN(___,0,0x900),
    DN(___,0,0x940),
    DN(___,0,0x940),
    DN(___,0,0x900),
    DN(___,0,0x900),
    DN(___,0,0x940),
    DN(___,0,0x940),
    DN(___,0,0x900),
    DN(___,0,0x900),
    DN(___,0,0x940),
    DN(___,0,0x940),
    DN(___,0,0x900),
    DN(___,0,0x900),
    DN(___,0,0x940),
    DN(___,0,0x940),
    DN(___,0,0x900),
    DN(___,0,0x900),
    DN(___,0,0x940),
    DN(___,0,0x940),
    DN(___,0,0x900),
    DN(___,0,0x900),
    DN(___,0,0x940),
    DN(___,0,0x940),
    DN(___,0,0x900),
    DN(___,0,0x900),
    DN(___,0,0x940),
    DN(___,1,0x940),
};
static const unsigned char itNoiseSP2[] = {
    DN(25,0,0x000),
    DN(36,0,0x000),
    DN(___,2,0x000),
    DN(___,0,0x000),
    DN(___,0,0x000),
    DN(___,0,0x000),
    DN(___,0,0x000),
    DN(___,0,0x000),
    DN(___,0,0x000),
    DN(___,0,0x000),
    DN(___,0,0x000),
    DN(___,0,0x000),
    DN(___,0,0x000),
    DN(___,0,0x000),
    DN(___,0,0x000),
    DN(___,0,0x000),
    DN(___,0,0x000),
    DN(___,0,0x000),
    DN(___,0,0x000),
    DN(___,0,0x000),
    DN(___,0,0x000),
    DN(___,0,0x000),
    DN(___,0,0x000),
    DN(___,0,0x000),
    DN(___,0,0x000),
    DN(___,0,0x000),
    DN(___,0,0x000),
    DN(___,0,0x000),
    DN(___,0,0x000),
    DN(___,0,0x000),
    DN(___,0,0x000),
    DN(___,1,0x000),
};
static const unsigned char* const order1[] = {P0,P0,P0,P1};
static const unsigned char* const order2[] = {P2,P2,P2,P3};
static const unsigned char* const order3[] = {P4,P4,P4,P5};
static const unsigned char* const order4[] = {P6,P6,P6,P7};

static const hUGEDutyInstr_t duty_instruments[] = {
    {8,191,241,0,128},
    {8,130,194,0,128},
    {8,191,148,0,128},
    {8,191,240,0,128},
    {8,191,244,0,128},
    {8,63,160,itSquareSP6,128},
};
static const hUGEWaveInstr_t wave_instruments[] = {
    {63,32,0,0,128},
};
static const hUGENoiseInstr_t noise_instruments[] = {
    {145,0,63,0,0},
    {241,itNoiseSP2,63,0,0},
};

static const unsigned char waves[] = {
    120,171,204,222,238,238,237,203,151,100,49,0,0,0,0,0,
};

const hUGESong_t sample = {7, &order_cnt, order1, order2, order3,order4, duty_instruments, wave_instruments, noise_instruments, NULL, waves};

#include <gb/gb.h>
#include "hUGEDriver.h"
#include "register.h"
#include "heartbeat.h"

// Declaras la canci�n exportada
extern const hUGESong_t sample;


static void tick(void) {
    hUGE_dosound();
}


static void music_init1(void) {
    NR52_REG = 0x80; // Enable sound
    NR50_REG = 0xFF; // Maximum volume
    NR51_REG = 0xFF; // Enable all channels

    settickrate(60);
    setbpm(60);
    settickcallback(tick);

    hUGE_init(&sample);
    initirq();
}

static void stopandclean1(void) {
    settickcallback(0);
    closeirq();

}


void register1(void) {
    registermodule("Sample", music_init1, stopandclean1, "hUGE");
}
